<svg xmlns="http://www.w3.org/2000/svg" xmlns:xlink="http://www.w3.org/1999/xlink" width="25.5" height="25.5" viewBox="0 0 25.5 25.5"><defs><style>.a{fill:url(#a);}.b{fill:url(#b);}.c{fill:url(#c);}</style><linearGradient id="a" x1="0.5" y1="0.008" x2="0.5" y2="0.998" gradientUnits="objectBoundingBox"><stop offset="0" stop-color="#e09b3d"/><stop offset="0.3" stop-color="#c74c4d"/><stop offset="0.6" stop-color="#c21975"/><stop offset="1" stop-color="#7024c4"/></linearGradient><linearGradient id="b" y1="-0.451" y2="1.462" xlink:href="#a"/><linearGradient id="c" y1="-1.396" y2="6.586" xlink:href="#a"/></defs><path class="a" d="M17.9,0H7.6A7.605,7.605,0,0,0,0,7.6V17.9a7.605,7.605,0,0,0,7.6,7.6H17.9a7.605,7.605,0,0,0,7.6-7.6V7.6A7.605,7.605,0,0,0,17.9,0Zm5.031,17.9A5.031,5.031,0,0,1,17.9,22.935H7.6A5.031,5.031,0,0,1,2.565,17.9V7.6A5.031,5.031,0,0,1,7.6,2.565H17.9A5.031,5.031,0,0,1,22.935,7.6V17.9Z"/><path class="b" d="M139.6,133a6.6,6.6,0,1,0,6.6,6.6A6.6,6.6,0,0,0,139.6,133Zm0,10.625a4.03,4.03,0,1,1,4.03-4.03A4.03,4.03,0,0,1,139.6,143.625Z" transform="translate(-126.845 -126.845)"/><circle class="c" cx="1.58" cy="1.58" r="1.58" transform="translate(17.778 4.624)"/></svg>