<svg xmlns="http://www.w3.org/2000/svg" width="56" height="37.333" viewBox="0 0 56 37.333"><defs><style>.a{fill:#3d3b3b;}</style></defs><g transform="translate(0 -85.333)"><g transform="translate(0 85.333)"><path class="a" d="M50.167,85.333H5.833A5.841,5.841,0,0,0,0,91.166v25.667a5.841,5.841,0,0,0,5.833,5.833H50.167A5.841,5.841,0,0,0,56,116.833V91.166A5.841,5.841,0,0,0,50.167,85.333ZM20.58,106.062l-14,11.667a1.168,1.168,0,0,1-1.5-1.794l14-11.667a1.168,1.168,0,1,1,1.5,1.794Zm7.42.31a6.515,6.515,0,0,1-3.689-1.15L5.175,92.13a1.166,1.166,0,1,1,1.316-1.925L25.627,103.3a4.178,4.178,0,0,0,4.744,0L49.507,90.205a1.167,1.167,0,0,1,1.318,1.925L31.689,105.222A6.515,6.515,0,0,1,28,106.373ZM51.063,117.58a1.166,1.166,0,0,1-1.643.149l-14-11.667a1.168,1.168,0,1,1,1.5-1.794l14,11.667A1.171,1.171,0,0,1,51.063,117.58Z" transform="translate(0 -85.333)"/></g></g></svg>