<svg xmlns="http://www.w3.org/2000/svg" width="138" height="137.44" viewBox="0 0 138 137.44"><g transform="translate(0 -1.04)"><g transform="translate(61.016 102.43)"><path d="M230.38,377.663a2.334,2.334,0,0,0-3.261.5l-.288.392a2.333,2.333,0,0,0,3.757,2.768l.292-.4A2.333,2.333,0,0,0,230.38,377.663Z" transform="translate(-226.377 -377.21)"/></g><g transform="translate(54.531 102.823)"><path d="M213.414,400.924l-6-10.911,5.6-7.63a2.333,2.333,0,1,0-3.761-2.762l-6.484,8.831a2.333,2.333,0,0,0-.164,2.505l6.719,12.215h0a2.333,2.333,0,1,0,4.089-2.248Z" transform="translate(-202.318 -378.668)"/></g><g transform="translate(72.124 102.86)"><path d="M278.484,388.552l-6.458-8.8a2.334,2.334,0,0,0-3.761,2.763l5.575,7.593-5.96,10.837a2.334,2.334,0,1,0,4.089,2.25l6.678-12.142A2.333,2.333,0,0,0,278.484,388.552Z" transform="translate(-267.591 -378.804)"/></g><g transform="translate(50.039 75.673)"><path d="M222.326,278.206a2.333,2.333,0,0,0-2.409.144,37.175,37.175,0,0,0-3.828,3.01c-6.279,5.676-12.245,4.908-12.478,4.875a2.278,2.278,0,0,0-.425-.028c-2.482.064-6.956-2.2-11.689-5.921-.724-.568-1.466-1.11-2.207-1.61a2.333,2.333,0,0,0-3.638,1.934v8a2.334,2.334,0,0,0,.874,1.82,2.277,2.277,0,0,0,.2.146l16.544,11.055.008.006.044.029a2.334,2.334,0,0,0,2.6-.017l.024-.016.027-.018,16.505-11.029c.066-.042.131-.087.193-.136a2.333,2.333,0,0,0,.9-1.839v-8.342A2.333,2.333,0,0,0,222.326,278.206Zm-3.419,9.159-14.3,9.552-14.295-9.552v-2.122c3.481,2.53,8.6,5.632,12.775,5.632h.027c1.4.155,8.547.576,15.789-5.776v2.267Z" transform="translate(-185.651 -277.939)"/></g><g transform="translate(61.304 95.126)"><path d="M237.444,352.06a2.333,2.333,0,0,0-4.182-1l-5.363,7.3a2.333,2.333,0,1,0,3.762,2.761L237,353.862a2.33,2.33,0,0,0,.48-1.418A2.384,2.384,0,0,0,237.444,352.06Z" transform="translate(-227.446 -350.11)"/></g><g transform="translate(33.539 1.04)"><g transform="translate(0 0)"><path d="M195.441,21.857c-.046-.365-1.139-8.254-8.564-11.365a8.021,8.021,0,0,0-.687-4.9c-1.182-2.328-3.515-3.845-6.934-4.51a2.325,2.325,0,0,0-.445-.043H147.5A23.088,23.088,0,0,0,124.434,24.1V36.39a14.077,14.077,0,0,0,3.072,8.79,11.356,11.356,0,0,1,2.374,6.589,2.333,2.333,0,0,0,4.663-.132V35.616a10.263,10.263,0,0,1,7.921-8h10.13a11.392,11.392,0,0,0,3.483-.541c1.926-.618,4.982-1.755,7.206-2.6a6.764,6.764,0,0,1,4.639-.058l10.844,3.807a9.919,9.919,0,0,1,6.509,7.507V54.959a2.332,2.332,0,0,0,2.159,2.325c.059,0,.118.007.176.007a2.336,2.336,0,0,0,2.306-1.988,32.973,32.973,0,0,1,3.945-10.9,10.455,10.455,0,0,0,1.6-5.53V22.151A2.342,2.342,0,0,0,195.441,21.857Zm-4.648,17.019a5.785,5.785,0,0,1-.851,3v-6.3a2.313,2.313,0,0,0-.014-.252,14.544,14.544,0,0,0-9.568-11.482l-.032-.011-10.861-3.813a11.435,11.435,0,0,0-7.842.1c-3.115,1.183-5.527,2.054-6.974,2.518a6.733,6.733,0,0,1-2.058.318H142.276a2.374,2.374,0,0,0-.3.019,14.853,14.853,0,0,0-12.043,11.872,2.335,2.335,0,0,0-.056.508v4.8a9.481,9.481,0,0,1-.777-3.761V24.1a18.416,18.416,0,0,1,18.4-18.4h31.081c1.287.274,2.851.837,3.444,1.981a4.523,4.523,0,0,1-.1,3.331,2.333,2.333,0,0,0,1.566,3.26c5.94,1.43,7.151,7.127,7.309,8.048V38.876Z" transform="translate(-124.434 -1.04)"/></g></g><g transform="translate(38.982 19.37)"><path d="M204.68,85a14.544,14.544,0,0,0-9.568-11.482l-.032-.011L184.22,69.69a11.442,11.442,0,0,0-7.843.1c-3.115,1.183-5.527,2.054-6.974,2.519a6.733,6.733,0,0,1-2.058.318H157.027a2.375,2.375,0,0,0-.3.019,14.853,14.853,0,0,0-12.043,11.872,2.335,2.335,0,0,0-.056.508v20.058c0,.017,0,.035,0,.052.015.7.508,17.151,11.877,24.676l.059.042c.049.035.1.069.149.1.648.438,1.3.913,1.936,1.413,3.312,2.6,9.554,6.919,14.477,6.919h.027a12.921,12.921,0,0,0,1.392.069c2.79,0,8.744-.731,14.707-6.122A32.537,32.537,0,0,1,192.6,129.6l.174-.122c.057-.04.114-.081.173-.12,3.792-2.547,10.36-9.119,11.739-24.519.006-.069.009-.139.009-.208V85.248A2.464,2.464,0,0,0,204.68,85Zm-4.653,19.533c-1.271,13.9-7.193,19.285-9.684,20.958-.088.06-.176.121-.263.182l-.129.091a37.177,37.177,0,0,0-3.828,3.01c-6.256,5.655-12.2,4.914-12.493,4.873a2.345,2.345,0,0,0-.41-.025c-2.482.064-6.956-2.2-11.689-5.921-.724-.569-1.466-1.11-2.206-1.61l-.057-.04c-.056-.04-.112-.08-.178-.123-9.174-6.072-9.775-20.282-9.795-20.875V85.291a10.261,10.261,0,0,1,7.917-8h10.133a11.392,11.392,0,0,0,3.483-.541c1.926-.618,4.982-1.755,7.206-2.6a6.764,6.764,0,0,1,4.639-.058L193.518,77.9a9.919,9.919,0,0,1,6.509,7.507v19.122Z" transform="translate(-144.628 -69.046)"/></g><g transform="translate(61.077 95.127)"><path d="M236.615,351.4a2.333,2.333,0,0,0-3.968-.337l-5.589,7.612a2.333,2.333,0,0,0,3.759,2.765l5.589-7.584a2.415,2.415,0,0,0,.455-1.412A2.338,2.338,0,0,0,236.615,351.4Z" transform="translate(-226.606 -350.113)"/></g><g transform="translate(66.684 133.262)"><path d="M251.959,492.323a2.332,2.332,0,0,0-3.261-.109l-.533.488a2.333,2.333,0,0,0-.463,2.859l.016.029a2.333,2.333,0,0,0,3.687.512l.517-.517A2.332,2.332,0,0,0,251.959,492.323Z" transform="translate(-247.406 -491.602)"/></g><g transform="translate(66.116 133.262)"><path d="M249.742,492.7l-.533-.488a2.333,2.333,0,0,0-3.224,3.372l.518.517a2.333,2.333,0,0,0,3.7-.528l.016-.029A2.334,2.334,0,0,0,249.742,492.7Z" transform="translate(-245.301 -491.603)"/></g><g transform="translate(66.642 133.766)"><path d="M251.207,494.1l0,0a2.334,2.334,0,0,0-3.184,0l-.007.006a2.334,2.334,0,0,0-.073,3.378l.025.025a2.333,2.333,0,0,0,3.295,0l.025-.025a2.334,2.334,0,0,0-.077-3.374Z" transform="translate(-247.252 -493.472)"/></g><g transform="translate(66.712 95.091)"><path d="M250.556,350.091a2.332,2.332,0,1,0,1.628,2.223v-.006A2.33,2.33,0,0,0,250.556,350.091Z" transform="translate(-247.512 -349.981)"/></g><g transform="translate(66.667 95.085)"><path d="M251.572,350.934l-.02-.027a2.333,2.333,0,0,0-4.209,1.387v.04a2.339,2.339,0,0,0,2.338,2.323,2.36,2.36,0,0,0,1.3-.391,2.333,2.333,0,0,0,.589-3.332Z" transform="translate(-247.343 -349.961)"/></g><g transform="translate(66.667 84.015)"><path d="M277.433,313.6a2.331,2.331,0,0,0-1.395-1.37l-8.946-3.207a2.281,2.281,0,0,0-.223-.067,2.331,2.331,0,0,0-1.862.323l-16.576,11.076-.014.009,1.3,1.935-1.331-1.916a2.335,2.335,0,0,0-.593,3.328l12.136,16.528a2.332,2.332,0,0,0,1.88.953c.051,0,.1,0,.153-.005a2.333,2.333,0,0,0,1.892-1.2L277.3,315.552A2.332,2.332,0,0,0,277.433,313.6Zm-15.9,20.932L253,322.916l13.623-9.1,5.265,1.888Z" transform="translate(-247.344 -308.887)"/></g><g transform="translate(41.093 84.015)"><path d="M182.667,321.93a2.333,2.333,0,0,0-1-1.535l-16.631-11.113a2.334,2.334,0,0,0-2.085-.256l-8.946,3.207a2.333,2.333,0,0,0-1.257,3.321l13.438,24.433a2.334,2.334,0,0,0,1.892,1.2c.051,0,.1,0,.152,0a2.334,2.334,0,0,0,1.881-.953l6.484-8.831.015-.021,5.636-7.677A2.334,2.334,0,0,0,182.667,321.93Zm-9.83,6.718-.017.023-4.305,5.864L158.157,315.7l5.265-1.887,13.622,9.1Z" transform="translate(-152.461 -308.889)"/></g><g transform="translate(66.7 87.222)"><path d="M318.651,362.125l-3.01-18.175a16.089,16.089,0,0,0-10.389-12.488l-29.119-10.535a2.333,2.333,0,0,0-2.882,3.235l6.08,12.192-5.966.092a2.333,2.333,0,0,0-2.031,3.416l2.447,4.672-25.04,22.907c-.026.023-.051.047-.075.072l-.517.517a2.333,2.333,0,0,0-.4,2.769l.018.033a2.334,2.334,0,0,0,2.047,1.213h60.421a8.526,8.526,0,0,0,8.412-9.92Zm-5.467,3.89a3.855,3.855,0,0,1-2.945,1.364H255.722l22.536-20.615a2.332,2.332,0,0,0,.492-2.8l-1.522-2.906,5.883-.091a2.333,2.333,0,0,0,2.052-3.374l-5.131-10.29,23.634,8.55a11.418,11.418,0,0,1,7.373,8.862l3.01,18.175h0A3.854,3.854,0,0,1,313.184,366.015Z" transform="translate(-247.466 -320.787)"/></g><g transform="translate(66.667 133.789)"><path d="M251.294,494.183l-.027-.025a2.334,2.334,0,0,0-3.22.085l-.024.025a2.333,2.333,0,0,0,1.655,3.978h.051a2.333,2.333,0,0,0,1.566-4.063Z" transform="translate(-247.343 -493.556)"/></g><g transform="translate(66.634 133.75)"><path d="M251.13,494.012a2.334,2.334,0,0,0-3.607.612l-.016.029a2.333,2.333,0,0,0,.369,2.745l.008.009a2.332,2.332,0,0,0,3.249.1l.025-.022a2.332,2.332,0,0,0,.515-.681A2.359,2.359,0,0,0,251.13,494.012Z" transform="translate(-247.22 -493.413)"/></g><g transform="translate(0 87.222)"><g transform="translate(0)"><path d="M70.645,368.056l-.01-.01-.019-.019-.518-.517c-.024-.025-.049-.048-.075-.071l-25.04-22.907,2.447-4.672a2.333,2.333,0,0,0-2.031-3.416l-5.966-.092,6.08-12.192a2.333,2.333,0,0,0-2.882-3.235L13.514,331.461A16.089,16.089,0,0,0,3.125,343.949L.115,362.124a8.527,8.527,0,0,0,8.412,9.92H69a2.333,2.333,0,0,0,1.645-3.987Zm-62.117-.679a3.861,3.861,0,0,1-3.808-4.491l3.01-18.175a11.418,11.418,0,0,1,7.373-8.862l23.634-8.55L33.6,337.587a2.333,2.333,0,0,0,2.052,3.374l5.883.091-1.522,2.906a2.333,2.333,0,0,0,.492,2.8l22.536,20.615Z" transform="translate(0 -320.786)"/></g></g><g transform="translate(61.016 95.138)"><path d="M242.3,360.775a2.333,2.333,0,0,0-.383-1.947l-5.678-7.733a2.335,2.335,0,0,0-3.834.127l-5.574,7.563a2.335,2.335,0,0,0-.039,2.721l2.374,3.409-2.529,15.939a2.335,2.335,0,0,0,.26,1.49l5.417,9.849a2.333,2.333,0,0,0,4.089,0l5.457-9.922a2.336,2.336,0,0,0,.289-1.124h0a2.375,2.375,0,0,0-.029-.366l-2.517-15.865,2.348-3.371A2.36,2.36,0,0,0,242.3,360.775Zm-7.941,25.453-2.988-5.432,2.551-16.077a2.332,2.332,0,0,0-.39-1.7l-1.955-2.808,2.789-3.784,2.8,3.818-1.932,2.774a2.333,2.333,0,0,0-.39,1.7l2.539,16Z" transform="translate(-226.376 -350.155)"/></g></g></svg>