<svg xmlns="http://www.w3.org/2000/svg" width="55.998" height="56" viewBox="0 0 55.998 56"><defs><style>.a{fill:#3d3b3b;}</style></defs><g transform="translate(-17.006 -17)"><g transform="translate(17.006 17)"><path class="a" d="M42.58,77.806a3.924,3.924,0,0,0-5.931,0c-1.387,1.375-2.773,2.75-4.137,4.148a.817.817,0,0,1-1.142.21c-.9-.489-1.853-.886-2.715-1.422A43.019,43.019,0,0,1,18.283,71.3a24.571,24.571,0,0,1-3.717-5.955.853.853,0,0,1,.21-1.1c1.387-1.34,2.738-2.715,4.1-4.09a3.939,3.939,0,0,0-.012-6.071c-1.084-1.1-2.167-2.167-3.251-3.263-1.119-1.119-2.226-2.249-3.356-3.356a3.949,3.949,0,0,0-5.931.012c-1.4,1.375-2.738,2.785-4.16,4.137A6.753,6.753,0,0,0,.046,56.178a19.3,19.3,0,0,0,1.492,8.309A50.488,50.488,0,0,0,10.5,79.414,55.454,55.454,0,0,0,28.864,93.782a26.56,26.56,0,0,0,10.173,2.96,7.455,7.455,0,0,0,6.4-2.435c1.189-1.328,2.529-2.54,3.787-3.811a3.964,3.964,0,0,0,.023-6.036Q45.924,81.121,42.58,77.806Z" transform="translate(-0.006 -40.761)"/><path class="a" d="M250.486,112.571l4.3-.734A19.3,19.3,0,0,0,238.46,96l-.606,4.323a14.917,14.917,0,0,1,12.632,12.247Z" transform="translate(-210.137 -84.813)"/><path class="a" d="M261.539,9.066A31.707,31.707,0,0,0,243.36,0l-.606,4.323a27.666,27.666,0,0,1,23.411,22.688l4.3-.734A31.939,31.939,0,0,0,261.539,9.066Z" transform="translate(-214.466)"/></g></g></svg>