<svg xmlns="http://www.w3.org/2000/svg" width="60" height="68.267" viewBox="0 0 60 68.267"><defs><style>.a{fill:#3d3b3b;}</style></defs><g transform="translate(-31)"><g transform="translate(39)"><path class="a" d="M113,0A21.99,21.99,0,0,0,95.117,34.8l16.2,25.277a2,2,0,0,0,3.367,0l16.269-25.363A22,22,0,0,0,113,0Zm0,32a10,10,0,1,1,10-10A10.012,10.012,0,0,1,113,32Z" transform="translate(-91)"/></g><g transform="translate(31 45.959)"><path class="a" d="M76.635,344.7,66.564,360.44a6.612,6.612,0,0,1-11.131,0L45.346,344.7C36.471,346.751,31,350.51,31,355c0,7.795,15.457,12,30,12s30-4.205,30-12C91,350.507,85.521,346.746,76.635,344.7Z" transform="translate(-31 -344.695)"/></g></g></svg>