<svg xmlns="http://www.w3.org/2000/svg" width="27.438" height="19.211" viewBox="0 0 27.438 19.211"><defs><style>.a{fill:red;}.b{fill:#fff;}</style></defs><g transform="translate(0 0)"><path class="a" d="M26.872,3.006A3.438,3.438,0,0,0,24.454.588C22.307,0,13.718,0,13.718,0S5.13,0,2.983.565A3.508,3.508,0,0,0,.565,3.006,36.222,36.222,0,0,0,0,9.605a36.089,36.089,0,0,0,.565,6.6,3.438,3.438,0,0,0,2.418,2.418c2.17.588,10.735.588,10.735.588s8.588,0,10.735-.565a3.438,3.438,0,0,0,2.418-2.418,36.223,36.223,0,0,0,.565-6.6,34.382,34.382,0,0,0-.565-6.622Zm0,0" transform="translate(0)"/><path class="b" d="M204.969,110.711l7.142-4.113-7.142-4.113Zm0,0" transform="translate(-193.985 -96.992)"/></g></svg>